
        <svg xmlns="http://www.w3.org/2000/svg" xmlns:xlink="http://www.w3.org/1999/xlink" version="1.1" width="3172.2461690043697" 
        height="980.8743215875575" viewBox="0 0 3172.2461690043697 980.8743215875575">
			<rect fill="#fef4e8" width="3172.2461690043697" height="980.8743215875575"/>
			<g transform="scale(8.612308450218483) translate(10, 10)">
				<defs id="SvgjsDefs4137"></defs><g id="SvgjsG4138" featureKey="symbolFeature-0" transform="matrix(0.16017084194621653,0,0,0.16017084194621653,0,0)" fill="#1989ac"><g xmlns="http://www.w3.org/2000/svg"><path d="M266.4,586.2C129,573.2,21.1,457.1,21.1,316.3c0-149.4,121.6-271,271-271c140.8,0,256.8,107.9,269.8,245.3   c-30-95.7-119.6-165.4-225.1-165.4C206.8,125.3,101,231,101,361.1C101,466.6,170.7,556.1,266.4,586.2z"></path><path d="M336.9,569.4c-113.5,0-206-91.1-208.3-204.1c21.1,70.3,86.5,121.7,163.6,121.7c94.1,0,170.7-76.6,170.7-170.8   c0-77.1-51.4-142.4-121.7-163.6c112.9,2.3,204.1,94.9,204.1,208.3c0,44.1-13.6,86.2-39.4,121.9c-13.6,17.5-29.7,33.5-47.5,47.4   C423.1,555.8,380.9,569.4,336.9,569.4z"></path><circle cx="53.4" cy="53.4" r="53.4"></circle><path d="M367.9,346.9c22.5,0,40.7,18.2,40.7,40.7c0,22.5-18.2,40.7-40.7,40.7c-22.5,0-40.7-18.2-40.7-40.7   C327.2,365.1,345.4,346.9,367.9,346.9z"></path></g></g><g id="SvgjsG4139" featureKey="nameLeftFeature-0" transform="matrix(2.6549300995037823,0,0,2.6549300995037823,106.62582145584503,11.899595269607158)" fill="#000000"><path d="M12.237 6.441000000000001 c0.15254 0 0.23729 0.067963 0.23729 0.22051 l0 13.119 c0 0.13559 -0.067797 0.22017 -0.20339 0.22017 l-0.6778 0 c-0.30508 0 -0.44068 -0.18644 -0.44068 -0.45763 l0 -5.5593 l-8.5593 0 l0 5.7797 c0 0.15254 -0.067797 0.23712 -0.22034 0.23712 l-0.86441 0 c-0.16966 0 -0.23746 -0.08458 -0.23746 -0.23712 l0 -13.102 c0 -0.15254 0.067797 -0.22034 0.22034 -0.22034 l0.88136 0 c0.13559 0 0.22034 0.067797 0.22034 0.22034 l0 6 l8.5593 0 l0 -6 c0 -0.15254 0.067797 -0.22034 0.20339 -0.22034 l0.88136 0 z"></path></g><g id="SvgjsG4140" featureKey="inlineSymbolFeature-0" transform="matrix(0.45,0,0,0.45,140.5,24.5)" fill="#1989ac"><path xmlns="http://www.w3.org/2000/svg" d="M50,10L10,90h80L50,10z M50,24.909L72.546,70H42.36l3.333-6.667h16.064L50,39.814L31.575,76.667h44.304l3.333,6.666H20.788  L50,24.909z"></path></g><g id="SvgjsG4141" featureKey="nameRightFeature-0" transform="matrix(2.6385648354832942,0,0,2.6385648354832942,182.86989748255712,12.00558520749355)" fill="#111111"><path d="M6.61 6.441000000000001 c2.8136 0 4.661 2.5424 4.661 4.6271 c0 2.2373 -1.8475 4.661 -4.661 4.661 l-3 0 l0 3.9322 c0 0.20339 -0.13559 0.33881 -0.32203 0.33881 l-1.7966 0 c-0.16949 0 -0.30508 -0.13543 -0.30508 -0.33881 l0 -12.898 c0 -0.16949 0.13559 -0.32203 0.32203 -0.32203 l5.1017 0 z M6.3558 13.39 c1.5932 0 2.4915 -1.1697 2.4915 -2.3222 c0 -1.1354 -0.89831 -2.288 -2.4915 -2.288 l-2.7458 0 l0 4.6102 l2.7458 0 z M18.067661016949152 16.5256 c0 0.18644 -0.13559 0.33898 -0.32203 0.33898 l-4.9492 0 c-0.16949 0 -0.33898 -0.13559 -0.33898 -0.3222 l0 -1.4407 c0 -0.20339 0.15254 -0.33898 0.33898 -0.33898 l4.9492 0 c0.18644 0 0.32203 0.11864 0.32203 0.32203 l0 1.4408 z M25.355762711864408 6.441000000000001 c2.8136 0 4.661 2.5424 4.661 4.6271 c0 2.2373 -1.8475 4.661 -4.661 4.661 l-3 0 l0 3.9322 c0 0.20339 -0.13559 0.33881 -0.32203 0.33881 l-1.7966 0 c-0.16949 0 -0.30508 -0.13543 -0.30508 -0.33881 l0 -12.898 c0 -0.16949 0.13559 -0.32203 0.32203 -0.32203 l5.1017 0 z M25.10156271186441 13.39 c1.5932 0 2.4915 -1.1697 2.4915 -2.3222 c0 -1.1354 -0.89831 -2.288 -2.4915 -2.288 l-2.7458 0 l0 4.6102 l2.7458 0 z M49.169423728813555 6.441000000000001 c0.18644 0 0.39032 0.15221 0.28863 0.38949 l-6.39 13 c-0.067797 0.13559 -0.20339 0.25407 -0.35576 0.25407 l-0.13559 0 c-0.16949 0 -0.30508 -0.11848 -0.37288 -0.25407 l-1.9831 -4.1695 l-2 4.1695 c-0.067797 0.13559 -0.18644 0.25407 -0.3561 0.25407 l-0.13559 0 c-0.16949 0 -0.30508 -0.11848 -0.35593 -0.25407 l-6.3898 -13.017 c-0.11881 -0.22017 0.10153 -0.37271 0.28797 -0.37271 l2.2203 0 c0.16949 0 0.25424 0.15254 0.33898 0.33898 l3.9659 8.4237 l1.0678 -2.3729 l-2.8812 -6.0169 c-0.10169 -0.22017 0.10169 -0.37271 0.28814 -0.37271 l2.2203 0 c0.18644 0 0.27119 0.15254 0.33898 0.32203 l1.3898 3.0678 l1.3729 -3.0508 c0.084746 -0.18644 0.16949 -0.33898 0.35593 -0.33898 l2.2034 0 c0.20339 0 0.40678 0.15254 0.28814 0.38983 l-2.8644 6 l1.0678 2.3729 l3.949 -8.4407 c0.084746 -0.16949 0.16949 -0.32203 0.35593 -0.32203 l2.2203 0 z M55.74555423728814 6.441000000000001 c4.4068 0 6.9661 3.5424 6.9661 6.7288 c0 3.6102 -2.5763 6.8303 -6.9661 6.8303 l-4.4746 0 c-0.18644 0 -0.33898 -0.15238 -0.33898 -0.33881 l0 -12.898 c0 -0.16949 0.13559 -0.32203 0.32203 -0.32203 l4.4915 0 z M55.74555423728814 17.6612 c2.7966 0 4.4746 -2.1866 4.4576 -4.5086 c0 -2.288 -1.5932 -4.3727 -4.4576 -4.3727 l-2.4068 0 l0.016949 8.8814 l2.3898 0 z"></path></g>
			</g>
		</svg>
	